<svg width="98" height="20" viewBox="0 0 98 20" fill="none" xmlns="http://www.w3.org/2000/svg">
<g clip-path="url(#clip0_23_2219)">
<mask id="mask0_23_2219" style="mask-type:luminance" maskUnits="userSpaceOnUse" x="0" y="0" width="91" height="20">
<path d="M0 0.296875H90.88V19.7028H0V0.296875Z" fill="white"/>
</mask>
<g mask="url(#mask0_23_2219)">
<path d="M8.77634 9.01985H6.04495V19.3846H2.59846V9.01985H0V5.86444H2.59846V2.62947L6.04495 1.88816V5.86541H8.77634V9.01985ZM23.1571 10.7955V19.3846H19.7106V11.9084C19.7106 10.0794 18.5443 8.88594 16.7687 8.88594C14.8591 8.88594 13.5861 10.1017 13.5861 11.9618V19.3846H10.1406V0.296875H13.5871V7.64008C14.6214 6.26226 16.106 5.54133 17.8816 5.54133C21.0632 5.54618 23.1571 7.60903 23.1571 10.7955ZM32.8426 5.65194V9.2042C30.3024 9.2042 28.8935 10.6626 28.8935 12.9428V19.3846H25.446V5.86444H28.8925V7.85258C29.8735 6.47379 31.2523 5.65194 32.8426 5.65194ZM47.6901 13.817H36.9509C37.402 15.5412 38.7808 16.6541 40.5836 16.6541C42.0682 16.6541 43.3141 15.9652 43.8438 15.0367H47.531C46.5481 17.7981 43.871 19.7038 40.5303 19.7038C36.3949 19.7038 33.2666 16.6541 33.2666 12.6245C33.2666 8.59485 36.3949 5.54618 40.5303 5.54618C44.6657 5.54618 47.7939 8.59486 47.7939 12.6507C47.7997 13.0427 47.7648 13.4337 47.6882 13.818L47.6901 13.817ZM37.0042 11.3H44.0825C43.6323 9.65636 42.2273 8.56963 40.5303 8.56963C38.807 8.56963 37.4544 9.65636 37.0042 11.3ZM63.4108 5.86444V19.3846H59.9595V17.6089C59.4342 18.2709 58.7646 18.8041 58.0018 19.1678C57.2391 19.5315 56.4033 19.7162 55.5582 19.7077C51.7935 19.7077 48.9573 16.658 48.9573 12.6284C48.9573 8.59874 51.7945 5.55006 55.5582 5.55006C56.4033 5.54146 57.2391 5.72608 58.0019 6.08982C58.7647 6.45356 59.4343 6.98679 59.9595 7.64882V5.86347H63.4099L63.4108 5.86444ZM59.9595 12.6245C59.9595 10.5034 58.3682 8.88594 56.2219 8.88594C54.1008 8.88594 52.5096 10.5034 52.5096 12.6245C52.5096 14.7456 54.1008 16.3621 56.2219 16.3621C58.3731 16.3621 59.9595 14.7456 59.9595 12.6245ZM79.2597 0.296875V19.3846H75.8132V17.6089C75.288 18.271 74.6184 18.8043 73.8556 19.168C73.0928 19.5318 72.257 19.7163 71.4119 19.7077C67.6472 19.7077 64.811 16.659 64.811 12.6293C64.811 8.59874 67.6481 5.55006 71.4119 5.55006C72.257 5.54146 73.0928 5.72608 73.8556 6.08982C74.6184 6.45356 75.2879 6.98679 75.8132 7.64882V0.296875H79.2597ZM75.8132 12.6245C75.8132 10.5034 74.2219 8.88594 72.0746 8.88594C69.9536 8.88594 68.3632 10.5034 68.3632 12.6245C68.3632 14.7456 69.9545 16.3621 72.0746 16.3621C74.2219 16.3621 75.8132 14.7456 75.8132 12.6245ZM80.7792 15.3287H84.2528C84.2528 16.1768 84.9679 16.8657 85.8693 16.8657C86.7184 16.8657 87.3811 16.3359 87.3811 15.6509C87.3811 14.7233 86.3467 14.273 85.1271 13.9548C83.1127 13.4774 80.9645 12.4431 80.9645 9.71264C80.9645 7.03462 83.2185 5.55006 85.816 5.55006C88.6007 5.55006 90.6946 7.40624 90.6946 9.71264H87.221C87.221 8.99656 86.6116 8.38721 85.7849 8.38721C85.0436 8.38721 84.4333 8.89079 84.4333 9.50014C84.4333 10.3492 85.3881 10.8527 86.7931 11.1972C88.8918 11.727 90.88 12.7613 90.88 15.3598C90.88 18.1212 88.5998 19.7067 85.8431 19.7067C82.9274 19.7028 80.7792 17.7409 80.7792 15.3287Z" fill="white"/>
</g>
<path d="M94.1286 6.21699C94.6923 6.21699 95.192 6.09667 95.6287 5.85507C96.0576 5.61936 96.4157 5.27332 96.6659 4.85275C96.9172 4.43067 97.0424 3.95231 97.0424 3.41671V3.0121C97.0482 2.53 96.9151 2.05643 96.6591 1.64786C96.4026 1.23452 96.0419 0.895889 95.6132 0.665919C95.1589 0.416554 94.6477 0.289499 94.1296 0.297206C93.5746 0.297206 93.0768 0.418493 92.6363 0.660097C92.2085 0.889805 91.8485 1.22772 91.5922 1.6401C91.3361 2.04762 91.208 2.50463 91.208 3.0121V3.41671C91.208 3.95231 91.3341 4.43067 91.5845 4.85275C91.8358 5.27386 92.1812 5.60861 92.6227 5.85507C93.0632 6.09667 93.5649 6.21699 94.1286 6.21699ZM94.1286 5.57659C93.6929 5.57659 93.3038 5.48247 92.9642 5.29327C92.6313 5.11233 92.3534 4.84481 92.1599 4.51897C91.9658 4.19198 91.8688 3.82229 91.8688 3.40992V3.01889C91.8688 2.63562 91.9658 2.28437 92.1599 1.96709C92.3539 1.6498 92.6227 1.39849 92.9633 1.21414C93.3207 1.02054 93.7222 0.922606 94.1286 0.929839C94.5604 0.929839 94.9466 1.02493 95.2871 1.21414C95.6287 1.39849 95.8965 1.6498 96.0905 1.96709C96.2886 2.2819 96.392 2.64699 96.3884 3.01889V3.40992C96.3884 3.82229 96.2914 4.19198 96.0973 4.51897C95.9044 4.84492 95.6268 5.1125 95.2939 5.29327C94.9368 5.4867 94.5357 5.58463 94.1296 5.57756L94.1286 5.57659ZM93.6823 2.26691H94.1936C94.345 2.26691 94.4653 2.2999 94.5565 2.36588C94.6467 2.43283 94.6914 2.53665 94.6914 2.67928C94.6914 2.85394 94.6293 2.97037 94.507 3.02665C94.3859 3.07954 94.255 3.10632 94.1228 3.10525H93.6823V2.26691ZM93.6745 4.61212V3.5739H94.1305L94.6982 4.61212H95.4521C95.3433 4.42319 95.2317 4.2359 95.1173 4.05031L94.7903 3.48172C94.9527 3.42997 95.0928 3.32503 95.1882 3.18384C95.2994 3.02594 95.3569 2.83646 95.3521 2.64338C95.3552 2.52638 95.3334 2.41006 95.288 2.30216C95.2427 2.19425 95.1749 2.09723 95.0892 2.01754C94.9184 1.85259 94.6933 1.76915 94.4139 1.76915H93.0361V4.61212H93.6745Z" fill="white"/>
</g>
<defs>
<clipPath id="clip0_23_2219">
<rect width="98" height="19.4059" fill="white" transform="translate(0 0.296875)"/>
</clipPath>
</defs>
</svg>
